<?xml version="1.0" encoding="utf-8"?><svg xml:space="preserve" viewBox="0 0 100 100" y="0px" x="0px" xmlns:xlink="http://www.w3.org/1999/xlink" xmlns="http://www.w3.org/2000/svg" id="Layer_1" version="1.1" width="344px" height="344px" style="width:100%;height:100%;background-size:initial;background-repeat-y:initial;background-repeat-x:initial;background-position-y:initial;background-position-x:initial;background-origin:initial;background-color:initial;background-clip:initial;background-attachment:initial;animation-play-state:paused" ><g class="ldl-scale" style="transform-origin:50% 50%;transform:rotate(0deg) scale(1, 1);animation-play-state:paused" ><g style="animation-play-state:paused" ><circle r="19.63" cy="44" cx="44" stroke-miterlimit="10" stroke-linejoin="round" stroke-linecap="round" stroke-width="3.5" stroke="#323334" fill="#FEE1C5" style="stroke:rgb(50, 51, 52);fill:rgb(224, 209, 12);animation-play-state:paused" ></circle>
<line y2="18.76" x2="33.55" y1="11.66" x1="30.61" stroke-miterlimit="10" stroke-linejoin="round" stroke-linecap="round" stroke-width="3.5" stroke="#323334" fill="none" style="stroke:rgb(50, 51, 52);animation-play-state:paused" ></line>
<line y2="33.55" x2="18.76" y1="30.61" x1="11.66" stroke-miterlimit="10" stroke-linejoin="round" stroke-linecap="round" stroke-width="3.5" stroke="#323334" fill="none" style="stroke:rgb(50, 51, 52);animation-play-state:paused" ></line>
<line y2="54.45" x2="18.76" y1="57.39" x1="11.66" stroke-miterlimit="10" stroke-linejoin="round" stroke-linecap="round" stroke-width="3.5" stroke="#323334" fill="none" style="stroke:rgb(50, 51, 52);animation-play-state:paused" ></line>
<line y2="69.24" x2="33.55" y1="76.34" x1="30.61" stroke-miterlimit="10" stroke-linejoin="round" stroke-linecap="round" stroke-width="3.5" stroke="#323334" fill="none" style="stroke:rgb(50, 51, 52);animation-play-state:paused" ></line>
<line y2="69.24" x2="54.45" y1="76.34" x1="57.39" stroke-miterlimit="10" stroke-linejoin="round" stroke-linecap="round" stroke-width="3.5" stroke="#323334" fill="none" style="stroke:rgb(50, 51, 52);animation-play-state:paused" ></line>
<line y2="54.45" x2="69.24" y1="57.39" x1="76.34" stroke-miterlimit="10" stroke-linejoin="round" stroke-linecap="round" stroke-width="3.5" stroke="#323334" fill="none" style="stroke:rgb(50, 51, 52);animation-play-state:paused" ></line>
<line y2="33.55" x2="69.24" y1="30.61" x1="76.34" stroke-miterlimit="10" stroke-linejoin="round" stroke-linecap="round" stroke-width="3.5" stroke="#323334" fill="none" style="stroke:rgb(50, 51, 52);animation-play-state:paused" ></line>
<line y2="18.76" x2="54.45" y1="11.66" x1="57.39" stroke-miterlimit="10" stroke-linejoin="round" stroke-linecap="round" stroke-width="3.5" stroke="#323334" fill="none" style="stroke:rgb(50, 51, 52);animation-play-state:paused" ></line></g>
<path d="M82.29,63.59c0.1-0.79,0.16-1.59,0.16-2.41c0-10.19-8.26-18.46-18.46-18.46c-7.79,0-14.46,4.83-17.16,11.67 c-1.54-0.77-3.28-1.22-5.13-1.22c-5.89,0-10.74,4.43-11.41,10.14c-5.45,1.36-9.49,6.28-9.49,12.15c0,6.81,5.43,12.33,12.19,12.52V88 h45.27c6.92,0,12.54-5.61,12.54-12.54C90.81,69.95,87.24,65.27,82.29,63.59z" stroke-miterlimit="10" stroke-linejoin="round" stroke-linecap="round" stroke-width="3.5" stroke="#323334" fill="#F2F2F3" style="stroke:rgb(50, 51, 52);fill:rgb(242, 242, 243);animation-play-state:paused" ></path>
<metadata xmlns:d="https://loading.io/stock/" style="animation-play-state:paused" ><d:name style="animation-play-state:paused" >weather</d:name>


<d:tags style="animation-play-state:paused" >weather,nature,sky,sunny,cloudy,froecast</d:tags>


<d:license style="animation-play-state:paused" >by</d:license>


<d:slug style="animation-play-state:paused" >hwa8rv</d:slug></metadata></g><!-- generated by https://loading.io/ --></svg>