<?xml version="1.0" encoding="utf-8"?><svg xml:space="preserve" viewBox="0 0 100 100" y="0px" x="0px" xmlns:xlink="http://www.w3.org/1999/xlink" xmlns="http://www.w3.org/2000/svg" id="Layer_1" version="1.1" width="200px" height="200px" style="width:100%;height:100%;background-size:initial;background-repeat-y:initial;background-repeat-x:initial;background-position-y:initial;background-position-x:initial;background-origin:initial;background-color:initial;background-clip:initial;background-attachment:initial;animation-play-state:paused" ><g class="ldl-scale" style="transform-origin:50% 50%;transform:rotate(0deg) scale(1, 1);animation-play-state:paused" ><path d="M81.9,34.35c0.13-0.96,0.2-1.93,0.2-2.93c0-12.38-10.03-22.41-22.41-22.41c-9.46,0-17.55,5.87-20.84,14.17 c-1.88-0.94-3.99-1.48-6.23-1.48c-7.15,0-13.04,5.38-13.85,12.31c-6.62,1.66-11.52,7.62-11.52,14.75c0,8.27,6.59,14.98,14.8,15.2 v0.02h54.97c8.41,0,15.22-6.82,15.22-15.22C92.25,42.06,87.92,36.39,81.9,34.35z" stroke-miterlimit="10" stroke-linejoin="round" stroke-linecap="round" stroke-width="3.5" stroke="#323334" fill="#F2F2F3" style="stroke:rgb(0, 0, 0);fill:rgb(255, 255, 255);animation-play-state:paused" ></path>
<g style="animation-play-state:paused" ><line y2="84" x2="18.99" y1="90" x1="16.11" stroke-miterlimit="10" stroke-linejoin="round" stroke-linecap="round" stroke-width="3.5" stroke="#323334" fill="none" style="stroke:rgb(0, 0, 0);animation-play-state:paused" ></line>
<line y2="78" x2="21.87" y1="72" x1="24.75" stroke-miterlimit="10" stroke-linejoin="round" stroke-linecap="round" stroke-width="3.5" stroke="#323334" fill="none" style="stroke:rgb(0, 0, 0);animation-play-state:paused" ></line>
<line y2="90" x2="26.61" y1="78" x1="32.37" stroke-miterlimit="10" stroke-linejoin="round" stroke-linecap="round" stroke-width="3.5" stroke="#323334" fill="none" style="stroke:rgb(0, 0, 0);animation-play-state:paused" ></line>
<line y2="84" x2="39.99" y1="72" x1="45.75" stroke-miterlimit="10" stroke-linejoin="round" stroke-linecap="round" stroke-width="3.5" stroke="#323334" fill="none" style="stroke:rgb(0, 0, 0);animation-play-state:paused" ></line>
<line y2="84" x2="50.49" y1="90" x1="47.61" stroke-miterlimit="10" stroke-linejoin="round" stroke-linecap="round" stroke-width="3.5" stroke="#323334" fill="none" style="stroke:rgb(0, 0, 0);animation-play-state:paused" ></line>
<line y2="78" x2="53.37" y1="72" x1="56.25" stroke-miterlimit="10" stroke-linejoin="round" stroke-linecap="round" stroke-width="3.5" stroke="#323334" fill="none" style="stroke:rgb(0, 0, 0);animation-play-state:paused" ></line>
<line y2="78" x2="63.87" y1="90" x1="58.11" stroke-miterlimit="10" stroke-linejoin="round" stroke-linecap="round" stroke-width="3.5" stroke="#323334" fill="none" style="stroke:rgb(0, 0, 0);animation-play-state:paused" ></line>
<line y2="84" x2="71.49" y1="72" x1="77.25" stroke-miterlimit="10" stroke-linejoin="round" stroke-linecap="round" stroke-width="3.5" stroke="#323334" fill="none" style="stroke:rgb(0, 0, 0);animation-play-state:paused" ></line></g>
<metadata xmlns:d="https://loading.io/stock/" style="animation-play-state:paused" ><d:name style="animation-play-state:paused" >weather</d:name>


<d:tags style="animation-play-state:paused" >weather,nature,sky,froecast,rain,cloudy,damp,moist</d:tags>


<d:license style="animation-play-state:paused" >by</d:license>


<d:slug style="animation-play-state:paused" >mz4fwv</d:slug></metadata></g><!-- generated by https://loading.io/ --></svg>