<?xml version="1.0" encoding="utf-8"?><svg xml:space="preserve" viewBox="0 0 100 100" y="0" x="0" xmlns="http://www.w3.org/2000/svg" id="圖層_1" version="1.1" width="200px" height="200px" xmlns:xlink="http://www.w3.org/1999/xlink" style="width:100%;height:100%;background-size:initial;background-repeat-y:initial;background-repeat-x:initial;background-position-y:initial;background-position-x:initial;background-origin:initial;background-color:initial;background-clip:initial;background-attachment:initial;animation-play-state:paused" ><g class="ldl-scale" style="transform-origin:50% 50%;transform:rotate(0deg) scale(1, 1);animation-play-state:paused" ><path fill="#b5b5b5" d="M92.5 36.3c0 4.5-3.9 8.2-8.6 8.2h-21c.5-1.4.9-2.9.9-4.5 0-5.1-3.1-9.6-7.7-11.4.1-.8.2-1.7.2-2.5 0-1.9-.3-3.8-1-5.5 1.4-1.1 3.2-1.8 5.2-1.8.9 0 1.7.1 2.4.4C65 15.5 69 13 73.7 13c6.7 0 12.2 5.2 12.2 11.6 0 1.2-.2 2.4-.6 3.5 4.1.7 7.2 4.1 7.2 8.2zm-39.3-6c.4-1.3.6-2.7.6-4.2 0-1.2-.1-2.3-.4-3.4-1.5-6-7-10.5-13.5-10.5-5.3 0-9.9 3-12.3 7.4-.9-.3-1.8-.4-2.8-.4-5.1 0-9.3 4.1-9.3 9.3 0 .6.1 1.3.2 1.9-4.7.7-8.3 4.8-8.3 9.7 0 5.4 4.4 9.8 9.8 9.8h34.2c3.8 0 7.1-2.2 8.8-5.4.7-1.3 1.1-2.9 1.1-4.5.1-4.8-3.5-8.9-8.1-9.7z" style="fill:rgb(181, 181, 181);animation-play-state:paused" ></path>
<g style="animation-play-state:paused" ><g style="animation-play-state:paused" ><path fill="#77a4bd" d="M26.1 61.7l1.6-4.3c.4-1.1-.1-2.3-1.2-2.8-1.1-.4-2.3.1-2.8 1.2l-1.6 4.3c-.4 1.1.1 2.3 1.2 2.8.3.1.5.1.8.1.8.1 1.7-.4 2-1.3z" style="fill:rgb(119, 164, 189);animation-play-state:paused" ></path></g>
<g style="animation-play-state:paused" ><path fill="#77a4bd" d="M34.4 68.6l4.2-11.1c.4-1.1-.1-2.3-1.2-2.8-1.1-.4-2.3.1-2.8 1.2L30.4 67c-.4 1.1.1 2.3 1.2 2.8.2.1.5.1.8.1.9.1 1.7-.5 2-1.3z" style="fill:rgb(119, 164, 189);animation-play-state:paused" ></path></g>
<g style="animation-play-state:paused" ><path fill="#77a4bd" d="M42.7 75.4l6.8-18c.4-1.1-.1-2.3-1.2-2.8-1.1-.4-2.3.1-2.8 1.2l-6.8 18c-.4 1.1.1 2.3 1.2 2.8.2.1.5.1.8.1.9.1 1.7-.4 2-1.3z" style="fill:rgb(119, 164, 189);animation-play-state:paused" ></path></g>
<g style="animation-play-state:paused" ><path fill="#77a4bd" d="M58.3 63.1l2.1-5.5c.4-1.1-.1-2.3-1.2-2.8-1.1-.4-2.3.1-2.8 1.2l-2.1 5.5c-.4 1.1.1 2.3 1.2 2.8.3.1.5.1.8.1.8.1 1.6-.5 2-1.3z" style="fill:rgb(119, 164, 189);animation-play-state:paused" ></path></g>
<g style="animation-play-state:paused" ><path fill="#77a4bd" d="M65.1 74.2l7.3-20.3c.4-1.1-.2-2.3-1.3-2.7-1.1-.4-2.3.2-2.7 1.3l-7.3 20.3c-.4 1.1.2 2.3 1.3 2.7.2.1.5.1.7.1.9 0 1.7-.5 2-1.4z" style="fill:rgb(119, 164, 189);animation-play-state:paused" ></path></g>
<g style="animation-play-state:paused" ><path fill="#77a4bd" d="M77.4 66.8l4.3-13.1c.4-1.1-.2-2.3-1.4-2.7-1.1-.4-2.3.2-2.7 1.4l-4.3 13.1c-.4 1.1.2 2.3 1.4 2.7.2.1.4.1.7.1.9 0 1.7-.6 2-1.5z" style="fill:rgb(119, 164, 189);animation-play-state:paused" ></path></g>
<g style="animation-play-state:paused" ><path fill="#77a4bd" d="M16.9 86.4l6.4-17.3c.4-1.1-.2-2.3-1.3-2.8-1.1-.4-2.3.2-2.8 1.3l-6.4 17.3c-.4 1.1.2 2.3 1.3 2.8.2.1.5.1.7.1.9 0 1.8-.6 2.1-1.4z" style="fill:rgb(119, 164, 189);animation-play-state:paused" ></path></g>
<g style="animation-play-state:paused" ><path fill="#77a4bd" d="M27.6 86.4l3.8-9.8c.4-1.1-.1-2.3-1.2-2.8-1.1-.4-2.3.1-2.8 1.2l-3.8 9.8c-.4 1.1.1 2.3 1.2 2.8.3.1.5.1.8.1.9.1 1.7-.4 2-1.3z" style="fill:rgb(119, 164, 189);animation-play-state:paused" ></path></g>
<g style="animation-play-state:paused" ><path fill="#77a4bd" d="M38.5 86.4l1-2.7c.4-1.1-.1-2.3-1.2-2.8-1.1-.4-2.3.1-2.8 1.2l-1 2.7c-.4 1.1.1 2.3 1.2 2.8.3.1.5.1.8.1.9.1 1.7-.4 2-1.3z" style="fill:rgb(119, 164, 189);animation-play-state:paused" ></path></g>
<g style="animation-play-state:paused" ><path fill="#77a4bd" d="M49.3 86.4l5.9-15.2c.4-1.1-.1-2.3-1.2-2.8-1.1-.4-2.3.1-2.8 1.2l-5.9 15.2c-.4 1.1.1 2.3 1.2 2.8.3.1.5.1.8.1.8.1 1.6-.4 2-1.3z" style="fill:rgb(119, 164, 189);animation-play-state:paused" ></path></g>
<g style="animation-play-state:paused" ><path fill="#77a4bd" d="M72.2 81.9l2.9-7.7c.4-1.1-.1-2.3-1.2-2.8-1.1-.4-2.3.1-2.8 1.2l-2.9 7.7c-.4 1.1.1 2.3 1.2 2.8.3.1.5.1.8.1.9.1 1.7-.4 2-1.3z" style="fill:rgb(119, 164, 189);animation-play-state:paused" ></path></g></g>
<metadata xmlns:d="https://loading.io/stock/" style="animation-play-state:paused" ><d:name style="animation-play-state:paused" >rain</d:name>
<d:tags style="animation-play-state:paused" >rainy,water,precipitation,fall,storm,thunder,rain,weather</d:tags>
<d:license style="animation-play-state:paused" >pro</d:license>
<d:slug style="animation-play-state:paused" >8vxbuk</d:slug></metadata></g><!-- generated by https://loading.io/ --></svg>