<?xml version="1.0" encoding="utf-8"?><svg xml:space="preserve" viewBox="0 0 100 100" y="0px" x="0px" xmlns:xlink="http://www.w3.org/1999/xlink" xmlns="http://www.w3.org/2000/svg" id="Layer_1" version="1.1" width="200px" height="200px" style="width:100%;height:100%;background-size:initial;background-repeat-y:initial;background-repeat-x:initial;background-position-y:initial;background-position-x:initial;background-origin:initial;background-color:initial;background-clip:initial;background-attachment:initial;animation-play-state:paused" ><g class="ldl-scale" style="transform-origin:50% 50%;transform:rotate(0deg) scale(1, 1);animation-play-state:paused" ><path d="M83.56,46.46c-13.64,0-24.69-11.06-24.69-24.69c0-2.59,0.4-5.1,1.14-7.44c-10,3.16-17.25,12.51-17.25,23.55 c0,13.64,11.06,24.69,24.69,24.69c11.04,0,20.39-7.25,23.55-17.25C88.65,46.06,86.15,46.46,83.56,46.46z" stroke-miterlimit="10" stroke-linejoin="round" stroke-linecap="round" stroke-width="3.5" stroke="#323334" fill="#FEE1C5" style="stroke:rgb(50, 51, 52);fill:rgb(254, 255, 141);animation-play-state:paused" ></path>
<path d="M17.45,61.49c-0.1-0.78-0.16-1.58-0.16-2.39c0-10.1,8.19-18.3,18.3-18.3c7.73,0,14.33,4.79,17.01,11.56 c1.53-0.77,3.25-1.21,5.08-1.21c5.84,0,10.64,4.39,11.31,10.05c5.4,1.35,9.41,6.22,9.41,12.04c0,6.75-5.38,12.23-12.08,12.41v0.02 H21.43C14.56,85.68,9,80.11,9,73.25C9,67.78,12.54,63.15,17.45,61.49z" stroke-miterlimit="10" stroke-linejoin="round" stroke-linecap="round" stroke-width="3.5" stroke="#323334" fill="#A0C8D7" style="stroke:rgb(50, 51, 52);fill:rgb(255, 255, 255);animation-play-state:paused" ></path>
<metadata xmlns:d="https://loading.io/stock/" style="animation-play-state:paused" ><d:name style="animation-play-state:paused" >weather</d:name>


<d:tags style="animation-play-state:paused" >weather,nature,sky,froecast,moon,cloudy,night</d:tags>


<d:license style="animation-play-state:paused" >by</d:license>


<d:slug style="animation-play-state:paused" >cqty2r</d:slug></metadata></g><!-- generated by https://loading.io/ --></svg>