<?xml version="1.0" encoding="utf-8"?><svg xml:space="preserve" viewBox="0 0 100 100" y="0px" x="0px" xmlns:xlink="http://www.w3.org/1999/xlink" xmlns="http://www.w3.org/2000/svg" id="Layer_1" version="1.1" width="200px" height="200px" style="width:100%;height:100%;background-size:initial;background-repeat-y:initial;background-repeat-x:initial;background-position-y:initial;background-position-x:initial;background-origin:initial;background-color:initial;background-clip:initial;background-attachment:initial;animation-play-state:paused" ><g class="ldl-scale" style="transform-origin:50% 50%;transform:rotate(0deg) scale(1, 1);animation-play-state:paused" ><path d="M56.48,70.7c-15.01,0-27.18-12.17-27.18-27.18c0-2.98,0.48-5.84,1.37-8.52C19.83,38.57,12,48.78,12,60.82 C12,75.83,24.17,88,39.18,88C51.22,88,61.43,80.17,65,69.33C62.32,70.22,59.46,70.7,56.48,70.7z" stroke-miterlimit="10" stroke-linejoin="round" stroke-linecap="round" stroke-width="3.5" stroke="#323334" fill="#FEE1C5" style="stroke:rgb(50, 51, 52);fill:rgb(255, 250, 0);animation-play-state:paused" ></path>
<g style="animation-play-state:paused" ><polygon points="52,11.19 56.16,19.62 65.47,20.98 58.73,27.54 60.32,36.81 52,32.43 43.68,36.81 45.27,27.54 38.53,20.98 47.84,19.62" stroke-miterlimit="10" stroke-linejoin="round" stroke-linecap="round" stroke-width="3.5" stroke="#323334" fill="#F5E169" style="stroke:rgb(50, 51, 52);fill:rgb(245, 225, 105);animation-play-state:paused" ></polygon>
<polygon points="72.71,43.72 78.56,46.79 84.41,43.72 83.29,50.23 88.02,54.84 81.48,55.79 78.56,61.72 75.63,55.79 69.1,54.84 73.83,50.23" stroke-miterlimit="10" stroke-linejoin="round" stroke-linecap="round" stroke-width="3.5" stroke="#323334" fill="#F5E169" style="stroke:rgb(50, 51, 52);fill:rgb(245, 225, 105);animation-play-state:paused" ></polygon></g>
<metadata xmlns:d="https://loading.io/stock/" style="animation-play-state:paused" ><d:name style="animation-play-state:paused" >weather</d:name>


<d:tags style="animation-play-state:paused" >weather,nature,sky,froecast,star,moon,night,bright</d:tags>


<d:license style="animation-play-state:paused" >by</d:license>


<d:slug style="animation-play-state:paused" >pjtk8p</d:slug></metadata></g><!-- generated by https://loading.io/ --></svg>