<svg xmlns="http://www.w3.org/2000/svg" version="1.1" xmlns:xlink="http://www.w3.org/1999/xlink" xmlns:svgjs="http://svgjs.com/svgjs" width="1366" height="700" preserveAspectRatio="none" viewBox="0 0 1366 700"><g mask="url(&quot;#SvgjsMask2041&quot;)" fill="none"><rect width="1366" height="700" x="0" y="0" fill="url(#SvgjsLinearGradient2042)"></rect><path d="M1411.533333333333 700L0 700 L0 392.53Q50.05 328.75, 113.83333333333333 378.8Q177.99 374.66, 182.13333333333333 438.82Q233.74 376.6, 295.96666666666664 428.21Q328.99 347.4, 409.79999999999995 380.42Q480.62 337.4, 523.6333333333333 408.22Q551.13 367.42, 591.9333333333333 394.92Q687.58 376.73, 705.7666666666667 472.38Q740.25 393.03, 819.6 427.52Q867.01 361.1, 933.4333333333334 408.51Q958.3 365.08, 1001.7333333333333 389.94Q1026.55 346.46, 1070.0333333333333 371.27Q1125.04 357.97, 1138.3333333333333 412.98Q1183.72 390.07, 1206.6333333333332 435.45Q1223.43 383.95, 1274.9333333333332 400.75Q1298.63 356.15, 1343.2333333333331 379.85Q1397.37 365.69, 1411.533333333333 419.83z" fill="rgba(33, 38, 43, 1)"></path><path d="M1479.833333333333 700L0 700 L0 523.4Q15.39 470.49, 68.3 485.87Q94.44 443.72, 136.6 469.86Q162.49 427.45, 204.89999999999998 453.34Q231.78 411.92, 273.2 438.8Q322.24 419.54, 341.5 468.58Q396.21 455, 409.8 509.71Q460.65 446.72, 523.6333333333333 497.57Q604.61 464.71, 637.4666666666667 545.69Q647.87 442.26, 751.3000000000001 452.67Q779.41 412.49, 819.6 440.6Q901.33 408.5, 933.4333333333334 490.23Q998.47 486.97, 1001.7333333333333 552.01Q1004.63 441.07, 1115.5666666666666 443.96Q1163.1 423.19, 1183.8666666666666 470.72Q1237.76 456.31, 1252.1666666666665 510.2Q1330.37 474.57, 1365.9999999999998 552.78Q1390.25 463.19, 1479.833333333333 487.44z" fill="rgba(53, 72, 90, 1)"></path><path d="M1479.833333333333 700L0 700 L0 553.07Q35.53 520.3, 68.3 555.83Q165.08 538.77, 182.13333333333333 635.55Q193.93 579.04, 250.43333333333334 590.84Q320.12 546.69, 364.26666666666665 616.38Q388.7 526.98, 478.09999999999997 551.42Q544.54 504.03, 591.9333333333333 570.47Q628.39 493.1, 705.7666666666667 529.56Q775.69 485.65, 819.6 555.58Q871.25 538.94, 887.9 590.59Q912.47 501.32, 1001.7333333333333 525.89Q1074.5 484.82, 1115.5666666666666 557.58Q1165.82 539.53, 1183.8666666666666 589.78Q1253.6 545.68, 1297.6999999999998 615.42Q1341.09 590.51, 1365.9999999999998 633.9Q1381.7 535.77, 1479.833333333333 551.47z" fill="rgba(83, 131, 178, 1)"></path><path d="M1457.0666666666662 700L0 700 L0 688.6Q26.29 646.6, 68.3 672.89Q101.79 592.55, 182.13333333333333 626.04Q209.69 585.3, 250.43333333333334 612.86Q321.3 569.89, 364.26666666666665 640.76Q449.56 612.22, 478.09999999999997 697.52Q518.08 623.66, 591.9333333333333 663.64Q617.4 620.81, 660.2333333333332 646.28Q705.67 577.89, 774.0666666666666 623.33Q814.09 595.05, 842.3666666666666 635.07Q919.04 643.45, 910.6666666666665 720.12Q974.24 669.86, 1024.4999999999998 733.43Q1026.63 667.26, 1092.7999999999997 669.39Q1106.3 614.59, 1161.0999999999997 628.1Q1211.76 564.92, 1274.933333333333 615.58Q1333.24 605.58, 1343.233333333333 663.89Q1424.54 631.36, 1457.0666666666662 712.67z" fill="white"></path></g><defs><mask id="SvgjsMask2041"><rect width="1366" height="700" fill="#ffffff"></rect></mask><linearGradient x1="87.81%" y1="-23.79%" x2="12.19%" y2="123.79%" gradientUnits="userSpaceOnUse" id="SvgjsLinearGradient2042"><stop stop-color="rgba(255, 200, 0, 1)" offset="0"></stop><stop stop-color="rgba(101, 168, 255, 1)" offset="0.72"></stop></linearGradient></defs></svg>