<svg xmlns="http://www.w3.org/2000/svg" version="1.1" xmlns:xlink="http://www.w3.org/1999/xlink" xmlns:svgjs="http://svgjs.com/svgjs" width="1366" height="768" preserveAspectRatio="none" viewBox="0 0 1366 768"><g mask="url(&quot;#SvgjsMask1002&quot;)" fill="none"><rect width="1366" height="768" x="0" y="0" fill="url(#SvgjsLinearGradient1003)"></rect><path d="M1366 0L1055.15 0L1366 108.38z" fill="rgba(255, 255, 255, .1)"></path><path d="M1055.15 0L1366 108.38L1366 426.62L746.44 0z" fill="rgba(255, 255, 255, .075)"></path><path d="M746.44 0L1366 426.62L1366 451.69L458.20000000000005 0z" fill="rgba(255, 255, 255, .05)"></path><path d="M458.20000000000005 0L1366 451.69L1366 674.6800000000001L446.14000000000004 0z" fill="rgba(255, 255, 255, .025)"></path><path d="M0 768L518.62 768L0 705.9z" fill="rgba(0, 0, 0, .1)"></path><path d="M0 705.9L518.62 768L765.53 768L0 597.37z" fill="rgba(0, 0, 0, .075)"></path><path d="M0 597.37L765.53 768L1011.03 768L0 261.58z" fill="rgba(0, 0, 0, .05)"></path><path d="M0 261.58L1011.03 768L1229.21 768L0 166.85999999999999z" fill="rgba(0, 0, 0, .025)"></path></g><defs><mask id="SvgjsMask1002"><rect width="1366" height="768" fill="#ffffff"></rect></mask><linearGradient x1="10.94%" y1="-19.47%" x2="89.06%" y2="119.47%" gradientUnits="userSpaceOnUse" id="SvgjsLinearGradient1003"><stop stop-color="rgba(255, 209, 0, 1)" offset="0"></stop><stop stop-color="rgba(0, 69, 158, 1)" offset="0.82"></stop><stop stop-color="rgba(0, 69, 158, 1)" offset="1"></stop></linearGradient></defs></svg>