<?xml version="1.0" encoding="utf-8"?><svg xml:space="preserve" viewBox="0 0 100 100" y="0px" x="0px" xmlns:xlink="http://www.w3.org/1999/xlink" xmlns="http://www.w3.org/2000/svg" id="Layer_1" version="1.1" width="200px" height="200px" style="width:100%;height:100%;background-size:initial;background-repeat-y:initial;background-repeat-x:initial;background-position-y:initial;background-position-x:initial;background-origin:initial;background-color:initial;background-clip:initial;background-attachment:initial;animation-play-state:paused" ><g class="ldl-scale" style="transform-origin:50% 50%;transform:rotate(0deg) scale(1, 1);animation-play-state:paused" ><g style="animation-play-state:paused" ><circle r="4.5" cy="63.5" cx="74.5" stroke-miterlimit="10" stroke-linejoin="round" stroke-linecap="round" stroke-width="3.5" stroke="#323334" fill="#FFFFFF" style="stroke:rgb(50, 51, 52);fill:rgb(146, 203, 255);animation-play-state:paused" ></circle>
<circle r="4.5" cy="80.5" cx="22.5" stroke-miterlimit="10" stroke-linejoin="round" stroke-linecap="round" stroke-width="3.5" stroke="#323334" fill="#FFFFFF" style="stroke:rgb(50, 51, 52);fill:rgb(146, 203, 255);animation-play-state:paused" ></circle>
<circle r="4.5" cy="74.5" cx="47.5" stroke-miterlimit="10" stroke-linejoin="round" stroke-linecap="round" stroke-width="3.5" stroke="#323334" fill="#FFFFFF" style="stroke:rgb(50, 51, 52);fill:rgb(146, 203, 255);animation-play-state:paused" ></circle></g>
<path d="M81.9,34.35c0.13-0.96,0.2-1.93,0.2-2.93c0-12.38-10.03-22.41-22.41-22.41c-9.46,0-17.55,5.87-20.84,14.17 c-1.88-0.94-3.99-1.48-6.23-1.48c-7.15,0-13.04,5.38-13.85,12.31c-6.62,1.66-11.52,7.62-11.52,14.75c0,8.27,6.59,14.98,14.8,15.2 v0.02h54.97c8.41,0,15.22-6.82,15.22-15.22C92.25,42.06,87.92,36.39,81.9,34.35z" stroke-miterlimit="10" stroke-linejoin="round" stroke-linecap="round" stroke-width="3.5" stroke="#323334" fill="#F2F2F3" style="stroke:rgb(50, 51, 52);fill:rgb(255, 255, 255);animation-play-state:paused" ></path>
<g style="animation-play-state:paused" ><circle r="4.5" cy="63.5" cx="32.5" stroke-miterlimit="10" stroke-linejoin="round" stroke-linecap="round" stroke-width="3.5" stroke="#323334" fill="#FFFFFF" style="stroke:rgb(50, 51, 52);fill:rgb(146, 203, 255);animation-play-state:paused" ></circle>
<circle r="4.5" cy="84.5" cx="63.5" stroke-miterlimit="10" stroke-linejoin="round" stroke-linecap="round" stroke-width="3.5" stroke="#323334" fill="#FFFFFF" style="stroke:rgb(50, 51, 52);fill:rgb(146, 203, 255);animation-play-state:paused" ></circle></g>
<metadata xmlns:d="https://loading.io/stock/" style="animation-play-state:paused" ><d:name style="animation-play-state:paused" >weather</d:name>


<d:tags style="animation-play-state:paused" >weather,nature,sky,froecast,snow,cold,hail</d:tags>


<d:license style="animation-play-state:paused" >by</d:license>


<d:slug style="animation-play-state:paused" >mcoo7b</d:slug></metadata></g><!-- generated by https://loading.io/ --></svg>